<svg xmlns="http://www.w3.org/2000/svg" width="40" height="40" viewBox="0 0 40 40">
    <path data-name="패스 40922" d="M20 0A20 20 0 1 1 0 20 20 20 0 0 1 20 0z" style="fill:#ff6737"/>
    <path data-name="패스 40826" d="M.829 12.468 12.653.644a2.328 2.328 0 0 1 3.216 0l.74.74a2.275 2.275 0 0 1 0 3.214L4.752 16.454 0 16.712zm3.435 2.889L15.816 3.805a1.152 1.152 0 0 0 0-1.628l-.739-.739a1.181 1.181 0 0 0-1.631 0L1.864 13.019l-.487 2.5z" transform="translate(11.362 11.644)" style="fill:#fff;stroke:#fff;stroke-width:.5px"/>
</svg>
