<svg xmlns="http://www.w3.org/2000/svg" width="15.499" height="15.512" viewBox="0 0 15.499 15.512">
    <path data-name="패스 40835" d="m14.612 8.372-.028-.039-.01-.014a1.162 1.162 0 0 1 .075-.169 1.661 1.661 0 0 0 .191-1.162 1.626 1.626 0 0 0-1.111-1.266 8 8 0 0 0-2.3-.1 7.277 7.277 0 0 1-1.827-.055c-.257-.129-.114-.618-.083-.714a6.04 6.04 0 0 1 .207-.524 5.158 5.158 0 0 0 .293-.8 3.688 3.688 0 0 0-.17-2.753A1.578 1.578 0 0 0 8.841.035a2.152 2.152 0 0 0-.887.024.741.741 0 0 0-.543.741 11.23 11.23 0 0 1-.192 1.451 4.969 4.969 0 0 1-1.812 2.99 12.82 12.82 0 0 1-1.6 1.228.389.389 0 0 0-.387-.38H.388A.39.39 0 0 0 0 6.481v7.714a.39.39 0 0 0 .388.392h3.035a.39.39 0 0 0 .388-.392v-.38a1.543 1.543 0 0 1 .359.019l.039.012A33.756 33.756 0 0 0 10.956 15a5.589 5.589 0 0 0 .787-.049 2.074 2.074 0 0 0 1.652-1.151 1.862 1.862 0 0 0 .1-.626l.019-.014a2.038 2.038 0 0 0 .791-.96 1.545 1.545 0 0 0-.035-1.1l-.014-.042.053-.058a1.83 1.83 0 0 0 .682-1.241 1.89 1.89 0 0 0-.379-1.391M3.035 13.8H.776V6.873h2.259zm11.183-4.1a1.089 1.089 0 0 1-.434.727.848.848 0 0 0-.32.467.912.912 0 0 0 .071.463.783.783 0 0 1 .036.578 1.293 1.293 0 0 1-.515.587.839.839 0 0 0-.264.256.726.726 0 0 0-.076.38 1.092 1.092 0 0 1-.057.392 1.393 1.393 0 0 1-1.024.626c-1.623.234-5.29-.569-7.22-1.085a1.992 1.992 0 0 0-.6-.06V7.358a10.442 10.442 0 0 0 2.1-1.523 5.731 5.731 0 0 0 2.061-3.414A11.935 11.935 0 0 0 8.184.858c0-.022 0-.039.006-.052A1.513 1.513 0 0 1 8.667.8a.8.8 0 0 1 .52.387 3.036 3.036 0 0 1 .083 2.149 4.512 4.512 0 0 1-.252.681 7.106 7.106 0 0 0-.233.593 1.278 1.278 0 0 0 .475 1.659 5.6 5.6 0 0 0 2.2.137 8.309 8.309 0 0 1 2.023.063.85.85 0 0 1 .6.678.9.9 0 0 1-.123.655.873.873 0 0 0 0 .99l.035.049a1.113 1.113 0 0 1 .23.863" transform="translate(.25 .261)" style="fill:#ff5353;stroke:#ff5353;stroke-width:.5px"/>
</svg>
