<svg xmlns="http://www.w3.org/2000/svg" width="17.648" height="9.634" viewBox="0 0 17.648 9.634">
    <path data-name="패스 40840" d="M17.648 4.817c0 2.66-3.951 4.817-8.824 4.817S0 7.477 0 4.817 3.951 0 8.824 0s8.824 2.157 8.824 4.817" style="fill:#222"/>
    <path data-name="패스 40841" d="M15.654 6.085c0-2.231 1.538-4.041 3.434-4.041s3.434 1.809 3.434 4.041-1.537 4.041-3.434 4.041-3.434-1.809-3.434-4.041" transform="translate(-10.264 -1.268)" style="fill:#fff"/>
    <path data-name="패스 40842" d="M19.235 8.456a2.419 2.419 0 0 1 2.2-2.59 2.419 2.419 0 0 1 2.2 2.59 2.419 2.419 0 0 1-2.2 2.59 2.419 2.419 0 0 1-2.2-2.59" transform="translate(-12.612 -3.639)" style="fill:#222"/>
</svg>
